<svg xmlns="http://www.w3.org/2000/svg" width="360" height="361" fill="none" viewBox="0 0 360 361">
  <circle cx="180" cy="180.133" r="180" fill="#E8E8E8"/>
  <mask id="a" width="360" height="361" x="0" y="0" maskUnits="userSpaceOnUse" style="mask-type:alpha">
    <circle cx="180" cy="180.133" r="180" fill="#ECAFC6"/>
  </mask>
  <g mask="url(#a)">
    <path fill="#1B8BBF" d="M79.16 297.634c-27.669-6.751-33.981-22.981-33.679-30.253 3.313-27.11 24.705.522 39.881-1.327 21.531 4.921 68.435-7.631 98.624-4.595 24.51 2.464 33.057 9.404 33.057 21.523 0 12.12-10.599 39.809-19.492 59.566-5.816 12.92-29.116 28.101-29.468 41.88 15.54 12.425 23.548 19.611 21.164 28.144-17.857-2.126-38.989-10.479-39.96-16.018 0-18.264 4.44-38.923 9.028-52.696 4.771-14.321 16.07-29.927 14.848-34.321-.9-2.226-12.631 5.166-22.905 0-10.273-5.166-27.789-7.685-35.262-8.299l-35.836-3.604Z"/>
    <path fill="#854314" fill-rule="evenodd" d="m140.662 319.874 28.911 95.338h-8.298l-28.246-94.466 3.945-.451 3.688-.421Zm-56.864-.598-28.912 95.338 8.474-1.539 28.07-92.926-3.944-.452-3.688-.421Z" clip-rule="evenodd"/>
    <path fill="#1F9DD8" d="M98.339 313.97c-25.836-5.219-29.713-12.884-33.728-32.518-.479-24.461 50.348-30.927 65.518-32.032 8.129 16.755 54.228 17.726 76.404 27.248 18.744 8.049 21.333 19.33 21.333 23.872 0 13.021-11.431 31.432-18.343 45.416-5.18 10.479-15.688 29.941-23.088 52.397 6.142 5.09 24.864 12.275 24.864 20.659-6.778 5.585-42.328-4.641-42.328-8.384 0-17.365 2.368-44.612 6.512-64.672 2.695-13.044 8.078-21.936 6.852-25.83-.903-1.983-16.441-2.528-27.414-6.156-9.059-2.996-5.113-2.162-16.687-2.338-9.374-.142-31.877 3.958-39.895 2.338Z"/>
    <path fill="#fff" d="M516.57 245.481a2.957 2.957 0 0 0-2.834-3.801H151.267a2.957 2.957 0 0 0-2.957 2.957v5.98a2.957 2.957 0 0 0 2.957 2.957h360.688a2.957 2.957 0 0 0 2.835-2.113l1.78-5.98Z"/>
    <path fill="#D16A1F" d="M184.587 226.615c3.512 2.818 8.771 9.283 10.961 12.163 1.919 5.978-11.696-1.306-18.744-5.695-3.385.328-7.021-2.967-8.416-4.655l-21.492.199c-11.653.71-35.867 2.339-39.493 3.176-3.626.837-6.371.61-7.29.391-7.266.68-11.852-14.263-14.956-20.9l23.413-15.5c-.436 1.879.404 7.299 1.142 9.835 1.773 6.084 16.664 5.613 21.866 5.198 2.09.497 8.731.66 11.79.679 8.597-.079 19.261 2.81 22.455 3.569 3.194.759 14.374 8.019 18.764 11.54Z"/>
    <path fill="#EA7723" d="M142.843 96.77c1.763 2.113.195 13.018-1.063 14.608-3.355 4.241-2.746 8.363-2.339 11.111.203 1.375.355 2.405-.064 2.935-.56.707-1.45.756-2.353.805-1.128.062-2.277.124-2.827 1.472-.112.274-.245.626-.401 1.036-1.223 3.212-3.789 9.957-7.621 10.408-2.007.236-6.658-2.357-11.984-5.527-.923 4.674-1.09 9.307-.844 11.235.146 1.137.755 2.986 1.43 5.037 1.013 3.074 2.174 6.601 2.146 8.857-3.364 1.106-19.5-4.031-28.988-18.342 5.165-4.354 8.5-13.733 9.3-16.166a26.7 26.7 0 0 0-1.132-.43c.695-6.899.245-12.376-.13-16.927-.331-4.038-.603-7.347.037-10.272.89-4.063 7.216-11.373 10.952-14.087 11.122-8.08 20.179-3.336 25.251.086 3.668 2.475 6.801 7.83 8.824 11.289.776 1.325 1.388 2.372 1.806 2.872Z"/>
    <path fill="#424242" fill-rule="evenodd" d="M114.363 112.553c-1.473-.733-.033-9.681-3.589-9.693-11.115-.038-1.287 14.533-2.622 15.999-6.674 7.332-6.112 8.369-13.51 7.266-3.071-12.703-5.402-28.36-.13-38.085 4.58-8.448 10.062-13.035 24.871-14.787 14.808-1.752 19.859 12.643 37.843 9.25-8.981 26.527-18.479 15.276-27.439 17.578-5.669 1.457-10.732 14.809-15.424 12.472Z" clip-rule="evenodd"/>
    <path fill="#fff" d="M124.836 169.765c-2.802-8.561-5.816-16.051-11.136-24.617-.617 2.926-11.726 3.924-25.324-5.219-3.2.675-9.88 5.179-13.682 8.891-16.697 16.307-24.35 38.366-27.553 51.236-4.136 16.627-3.676 30.864-2.39 45.474 1.286 14.611 3.855 20.865 8.8 25.768 2.828 2.803 5.995 10.236 7.581 13.833 1.586 3.596 12.393 3.014 14.588 6.955 20.048-1.826 76.139-25.752 66.45-34.668-13.574-12.491-14.456-36.601-13.61-46.013.722-10.777.849-27.669-3.724-41.64Z"/>
    <path fill="#EA7723" d="M187.313 221.139c4.291 1.844 9.526 7.406 12.509 9.683 3.557 5.458-10.495 2.433-18.761.001-3.305 1.274-10.104-3.56-11.964-4.864l-15.769 7.151c-11.493 3.968-36.574 13.967-39.982 15.82-3.407 1.852-6.223 2.391-7.204 2.428-7.1 2.712-12.053-5.038-16.978-10.827 4.11-4.097 13.733-13.533 19.35-18.496 3.439 5.607 18.244.974 23.348-.896 2.232-.086 8.936-1.778 12.01-2.613 8.599-2.482 20.083-2.564 23.493-2.695 3.41-.131 14.584 3.003 19.948 5.308Z"/>
    <path fill="#4E4E4E" d="M278.348 232.414H157.977v9.016h120.371z"/>
    <path fill="#4E4E4E" d="m222.303 178.369-10.34 60.118a2.237 2.237 0 0 0 2.204 2.615h65.999a2.237 2.237 0 0 0 2.211-1.9l9.123-60.118a2.237 2.237 0 0 0-2.211-2.572h-64.782a2.236 2.236 0 0 0-2.204 1.857Z"/>
    <path fill="#FFC807" fill-rule="evenodd" d="M36.893 181.372c5.132-22.026 42.291 114.778 42.291 114.778s106.297 7.759 106.297 21.207c0 13.447-54.53 17.026-91.942 17.026-37.412 0-40.268-14.128-45.676-41.253-5.409-27.126-16.1-89.732-10.97-111.758Z" clip-rule="evenodd"/>
  </g>
</svg>
